
1.25k → 556 bytes 43.34%
<svg viewBox="0 0 63.9428 82.0886">
  <g stroke="#ffffff" transform="translate(-69.1655 -98.2448)">
    <path fill="none" stroke-width="1.6" d="m103.4182 100.309-.3273 70.8546M114.2182 109.1454c-1.29 9.1095-7.264 15.9544-11.291 23.891M124.8546 108.1636c-7.6393 13.2293-14.9971 20.207-21.7637 24.7091M128.4546 120.4364c-8.8323 12.415-15.0448 11.3147-25.2 12.4363"/>
    <path fill="none" stroke-width="1.6" d="M93.9273 112.4182c.265 6.9646 3.337 13.3735 9.4909 21.6"/>
    <path fill="none" stroke-width="1.6" d="M80.0182 109.8c3.352 12.8618 15.3637 18.5164 23.4 23.4M72.6545 119.9454c-1.4417 9.0075 17.0415 10.4758 30.7637 13.7455"/>
    <circle cx="103.1727" cy="102.1909" r="2.6153" stroke-width="2.6617"/>
    <circle cx="126.0414" cy="106.9103" r="2.778" stroke-width="2.8272"/>
    <circle cx="114.6687" cy="107.974" r="2.6153" stroke-width="2.6617"/>
    <circle cx="93.0804" cy="112.455" r="2.5611" stroke-width="2.6065"/>
    <circle cx="128.9986" cy="120.3914" r="2.7237" stroke-width="2.7721"/>
    <ellipse cx="103.1757" cy="172.46" stroke-width="4.1814" rx="2.9191" ry="5.7827"/>
    <circle cx="73.2753" cy="121.1164" r="2.7237" stroke-width="2.7721"/>
    <circle cx="80.4774" cy="109.5755" r="2.6695" stroke-width="2.7169"/>
  </g>
</svg>